:SAMPLES-PER-SECOND 30
:FULLY-SPECIFIED
:DEGREES
866
root  7.28453 39.5879 -19.334 -7.1955 -79.4025 3.7985
RightUpLeg  8.41816 -9.05379 -4.84928
RightLeg  6.25467 5.69483 0.539224
RightFoot  -10.8625 -0.0797615 1.53069
RightToes  5.47152e-009 0 -3.6325e-017
Spine  8.21133 -0.987377 9.56587
Spine1  2.92987 0.468153 -5.04743
HEad  -5.22433 4.23169 -3.49093
LeftShoulder1  0.433741 2.32731 -30.7719
LeftArm  9.80554 12.5656 -41.8765
LeftForeArm  18.1939 -24.9158 -4.36435
LeftHand  -0.0424117 1.77469 1.08093
RightShoulder  -0.526872 -5.08972 26.4101
RightArm  22.3939 3.44391 43.533
RightForeArm  1.57621 16.1669 6.42973
RightHand  -0.308334 3.07351 -4.45268
LeftUpLeg  -12.9667 5.10266 2.72825
LeftLeg  -4.00458 2.63991 -1.0917
LeftFoot  1.65215 0.546252 -4.89416
LeftToes  -4.29285e-010 1.49941e-010 2.15559e-012
867
root  6.5014 39.4379 -19.0382 -4.92914 -79.3636 1.47399
RightUpLeg  9.74682 -9.0083 -4.81528
RightLeg  6.47827 5.6824 0.462518
RightFoot  -12.1712 -0.0701513 1.75964
RightToes  5.47152e-009 0 -3.6325e-017
Spine  7.84428 -1.07715 9.1435
Spine1  3.0943 0.220004 -4.51423
HEad  -5.19682 4.49884 -3.41099
LeftShoulder1  0.408135 2.40551 -31.0603
LeftArm  11.2179 12.4729 -41.5476
LeftForeArm  17.344 -23.679 -4.20707
LeftHand  -0.0362623 1.56255 0.887589
RightShoulder  -0.456419 -4.8885 26.0891
RightArm  20.6765 2.40549 44.0151
RightForeArm  2.54552 15.3168 6.54605
RightHand  -0.288711 2.46324 -4.43533
LeftUpLeg  -12.6943 5.2183 2.95213
LeftLeg  -5.62635 5.7851 -1.28251
LeftFoot  1.12783 0.566765 -5.22968
LeftToes  -4.29285e-010 1.49941e-010 2.15559e-012
868
root  5.68033 39.2717 -18.6884 -3.65619 -78.9294 0.1165
RightUpLeg  11.2219 -9.24511 -5.21894
RightLeg  6.84331 5.63336 0.582099
RightFoot  -13.5117 -0.0539585 1.95645
RightToes  5.47152e-009 0 -3.6325e-017
Spine  7.41468 -1.23009 8.6254
Spine1  3.3725 0.00293485 -4.34314
HEad  -5.20874 4.17678 -3.13774
LeftShoulder1  0.420241 2.37096 -31.0052
LeftArm  12.1947 12.1829 -41.5515
LeftForeArm  16.4801 -21.6527 -4.45168
LeftHand  -0.0478148 1.98031 1.38021
RightShoulder  -0.541552 -5.11547 26.7908
RightArm  19.0809 1.704 43.8345
RightForeArm  3.2113 13.83 6.92334
RightHand  -0.405286 2.81799 -5.94796
LeftUpLeg  -13.0571 5.20257 2.65037
LeftLeg  -3.33977 7.6218 -1.22076
LeftFoot  2.73694 0.395196 -3.39433
LeftToes  -4.29285e-010 1.49941e-010 2.15559e-012
869
root  4.81729 39.1401 -18.288 -4.31772 -78.8087 0.399071
RightUpLeg  13.4175 -9.4552 -6.09671
RightLeg  6.55813 6.09334 0.529151
RightFoot  -14.5801 -0.0209354 2.7546
RightToes  5.47152e-009 0 -3.6325e-017
Spine  7.38481 -1.22595 8.00148
Spine1  3.6209 0.136819 -4.85614
HEad  -5.26887 3.98804 -2.61314
LeftShoulder1  0.424579 2.34691 -30.5965
LeftArm  10.0909 12.2102 -41.7682
LeftForeArm  19.3619 -19.468 -5.25449
LeftHand  -0.0230097 0.974723 0.454417
RightShoulder  -0.639719 -5.36244 27.7255
RightArm  18.225 0.754815 43.2755
RightForeArm  4.67619 12.297 7.313
RightHand  -0.302039 2.34479 -4.74316
LeftUpLeg  -13.142 5.09856 1.99556
LeftLeg  -0.350596 7.61857 -0.834327
LeftFoot  7.14424 -0.0328773 -0.109573
LeftToes  -4.29285e-010 1.49941e-010 2.15559e-012
870
root  3.91699 39.0405 -17.8447 -6.95749 -79.1682 2.61617
RightUpLeg  15.5428 -9.40133 -7.22241
RightLeg  6.33658 6.65734 0.00664163
RightFoot  -15.2467 0.0303693 3.9179
RightToes  5.47152e-009 0 -3.6325e-017
Spine  7.28724 -1.0288 6.95379
Spine1  3.90655 0.39593 -5.29201
HEad  -5.37889 3.58601 -1.73857
LeftShoulder1  0.351554 2.55018 -30.7598
LeftArm  7.66258 12.4484 -41.4548
LeftForeArm  21.3963 -17.5025 -6.18381
LeftHand  -0.0191922 2.92207 0.165327
RightShoulder  -0.635802 -5.32893 28.1141
RightArm  16.2803 -0.318818 43.4576
RightForeArm  7.81125 10.0011 7.59056
RightHand  -0.261523 2.36189 -4.124
LeftUpLeg  -12.5357 5.35427 1.36757
LeftLeg  1.2521 6.38114 -1.00034
LeftFoot  12.2412 -0.542942 2.29996
LeftToes  -4.29285e-010 1.49941e-010 2.15559e-012
